<?xml version="1.0" encoding="utf-8"?>
<!-- Generator: Adobe Illustrator 26.0.1, SVG Export Plug-In . SVG Version: 6.00 Build 0)  -->
<svg version="1.1" id="Layer_1" xmlns="http://www.w3.org/2000/svg" xmlns:xlink="http://www.w3.org/1999/xlink" x="0px" y="0px"
	 viewBox="0 0 500 150" style="enable-background:new 0 0 500 150;" xml:space="preserve">
<style type="text/css">
	.st0{fill:#56BAD6;}
	.st1{fill-rule:evenodd;clip-rule:evenodd;fill:#56BAD6;}
	.st2{fill:#00704A;}
	.st3{fill-rule:evenodd;clip-rule:evenodd;fill:#00704A;}
</style>
<g>
	<g>
		<path class="st0" d="M384.9,111.1c-4.3,0-7.9-0.8-10.7-2.5c-2.8-1.7-4.9-4.2-6.3-7.6c-1.3-3.4-2-7.6-2-12.7V63.3
			c0-2.8,0.7-4.9,2-6.3c1.4-1.4,3.3-2.1,5.8-2.1c2.5,0,4.4,0.7,5.8,2.1c1.4,1.4,2.1,3.5,2.1,6.3v25.3c0,3.2,0.6,5.6,1.9,7.2
			c1.2,1.6,3.2,2.4,5.9,2.4c3,0,5.4-1.1,7.3-3.4c1.9-2.2,2.9-5.2,2.9-8.9V63.3c0-2.8,0.7-4.9,2-6.3c1.3-1.4,3.3-2.1,5.8-2.1
			c2.6,0,4.5,0.7,5.9,2.1c1.3,1.4,2,3.5,2,6.3v39.1c0,5.6-2.5,8.5-7.6,8.5c-2.5,0-4.4-0.7-5.7-2.2c-1.3-1.5-2-3.6-2-6.3V95l1.6,4.3
			c-1.5,3.7-3.7,6.6-6.5,8.7C392.1,110.1,388.8,111.1,384.9,111.1z"/>
		<path class="st0" d="M452.4,111.1c-4.8,0-8.8-0.8-12-2.5c-3.2-1.7-5.6-4.1-7.2-7.4c-1.6-3.2-2.3-7.3-2.3-12.2V68.3h-4.4
			c-1.9,0-3.4-0.5-4.5-1.6c-1.1-1.1-1.6-2.6-1.6-4.5c0-2.1,0.5-3.6,1.6-4.7c1.1-1.1,2.6-1.6,4.5-1.6h4.4v-8.4c0-2.8,0.7-4.9,2.1-6.3
			c1.4-1.4,3.3-2.1,5.8-2.1c2.6,0,4.5,0.7,5.8,2.1c1.3,1.4,2,3.5,2,6.3v8.4h9.9c1.9,0,3.4,0.5,4.5,1.6c1,1.1,1.6,2.6,1.6,4.7
			c0,1.9-0.5,3.4-1.6,4.5s-2.5,1.6-4.5,1.6h-9.9v20c0,3.1,0.7,5.4,2,6.9c1.3,1.5,3.5,2.3,6.5,2.3c1,0,2-0.1,2.9-0.3
			c0.9-0.2,1.7-0.4,2.5-0.4c1-0.1,1.8,0.2,2.4,0.9c0.6,0.7,0.9,2.2,0.9,4.6c0,1.8-0.3,3.3-0.8,4.6c-0.6,1.3-1.5,2.3-2.9,2.9
			c-0.9,0.4-2.1,0.7-3.7,0.9C454.8,111,453.5,111.1,452.4,111.1z"/>
	</g>
	<g>
		<path class="st0" d="M304.6,58.8c2.7-2,5.7-3.5,8.9-4.6c7.7-2.6,16.5-2.5,24.5,1.1c2.6,1.1,5,2.6,7.2,4.3v0
			c2.2,1.7,4.1,3.7,5.7,5.9l-2.2,0.5c-1.4-1.9-4.3-1.9-6.2-3.4h0c-1.9-1.5-4-2.8-6.2-3.7c-7-3.1-12.6,2.1-19.3,4.4
			c-14.1-2.4-22.1,14.7-19.8,24.5C291.6,77.4,296.2,64.9,304.6,58.8L304.6,58.8z"/>
		<path class="st1" d="M307.2,57.4c-5.2,6,4.9-1.3,8,3.5c1.5,2.3,3.8,4.4,6.7,6.2c5,3,6.1,2.6,8.7,6.4c1.8,2.5,4.8-2.7,0.2-6.3
			c-1.9-1.5-4.1-3-3.8-4.3c0.5-1.9,4.3-1.8,5.9-1.6c7.1,1,9.7,2.2,13.2,4.4c3.4,2.2,5.3,4.2,6.7,4c2.3-0.4,0.3-2.3-0.1-2.8
			c-2.5-3-9-8.8-15.4-10.1C329.2,55,320.3,48.8,307.2,57.4L307.2,57.4z M337.4,63c0.6,0.9,1.2,1.7,1.6,2.6c2,3.9,3.9,4.3,4.6,3.6
			c0.5-0.5-0.9-2.8-2.3-5C340.3,63.6,339,63.3,337.4,63L337.4,63z M342,64.3c0.9,1,1.6,2.1,2.2,3.1c2.1,3.8,4.1,4.1,4.7,3.4
			c0.4-0.4-0.4-1.9-1.5-3.6c-0.4-0.3-0.9-0.6-1.4-0.9C344.6,65.5,343.3,64.8,342,64.3L342,64.3z M333.7,62.3c0.4,0.6,0.7,1.1,1,1.6
			c1.8,3.5,3.5,3.9,4.2,3.3c0.4-0.4-0.7-2.4-1.9-4.3C336,62.7,334.9,62.5,333.7,62.3L333.7,62.3z"/>
		<path class="st2" d="M344,105.9c-2.7,2-5.7,3.5-8.9,4.6c-7.7,2.6-16.5,2.5-24.5-1.1c-2.6-1.1-5-2.6-7.2-4.3l0,0
			c-2.2-1.7-4.1-3.7-5.7-5.9l2.2-0.5c1.4,1.9,4.3,1.9,6.2,3.4h0c1.9,1.5,4,2.8,6.2,3.8c7,3.1,12.6-2.1,19.3-4.4
			c14.1,2.4,22.1-14.7,19.8-24.5C357,87.2,352.3,99.7,344,105.9L344,105.9z"/>
		<path class="st3" d="M341.4,107.3c5.2-6-4.9,1.3-8-3.5c-1.5-2.3-3.8-4.4-6.7-6.2c-5-3-6.1-2.6-8.7-6.4c-1.8-2.5-4.8,2.7-0.2,6.3
			c1.9,1.5,4.1,3,3.8,4.3c-0.5,1.9-4.3,1.8-5.9,1.6c-7.1-1-9.7-2.2-13.2-4.4c-3.4-2.1-5.3-4.2-6.7-3.9c-2.3,0.4-0.3,2.3,0.1,2.8
			c2.5,3,9,8.8,15.4,10.1C319.4,109.6,328.3,115.9,341.4,107.3L341.4,107.3z M311.2,101.7c-0.6-0.9-1.2-1.7-1.6-2.5
			c-2-3.9-3.9-4.3-4.6-3.6c-0.5,0.5,0.9,2.8,2.3,5C308.3,101,309.6,101.4,311.2,101.7L311.2,101.7z M306.6,100.4
			c-0.9-1-1.6-2.1-2.2-3.1c-2.1-3.8-4.1-4.1-4.7-3.4c-0.4,0.4,0.5,1.9,1.5,3.6c0.4,0.3,0.9,0.6,1.4,0.9
			C304,99.1,305.2,99.8,306.6,100.4L306.6,100.4z M314.9,102.3c-0.4-0.6-0.7-1.1-1-1.6c-1.8-3.5-3.6-3.9-4.2-3.3
			c-0.4,0.4,0.7,2.4,1.9,4.3C312.6,102,313.7,102.1,314.9,102.3L314.9,102.3z"/>
	</g>
	<g>
		<path class="st2" d="M34.6,112.1c-2.6,0-4.6-0.7-6-2.2c-1.4-1.5-2.1-3.6-2.1-6.3v-39c0-2.7,0.7-4.8,2-6.2c1.4-1.4,3.2-2.1,5.7-2.1
			c2.5,0,4.4,0.7,5.7,2.1c1.3,1.4,2,3.5,2,6.2v5.7h-1c0.8-4.4,2.7-7.8,5.5-10.2c2.8-2.4,6.5-3.8,11-4.1c1.7-0.1,3.1,0.3,4,1.4
			c0.9,1.1,1.4,2.8,1.5,5.2c0.1,2.3-0.3,4.1-1.3,5.4c-1,1.3-2.7,2.1-5,2.4l-2.4,0.2c-3.9,0.4-6.9,1.6-8.8,3.6
			c-1.9,2.1-2.9,5-2.9,8.9v20.5c0,2.7-0.7,4.8-2,6.3C39.1,111.3,37.1,112.1,34.6,112.1z"/>
		<path class="st2" d="M94.8,112.3c-6,0-11.2-1.2-15.5-3.5c-4.3-2.3-7.6-5.6-10-9.8c-2.3-4.2-3.5-9.2-3.5-14.9
			c0-5.6,1.1-10.5,3.3-14.7c2.2-4.2,5.3-7.5,9.3-9.9c4-2.4,8.5-3.6,13.6-3.6c3.7,0,7,0.6,10,1.9c3,1.3,5.5,3.1,7.7,5.5
			c2.1,2.4,3.8,5.3,4.9,8.7c1.1,3.4,1.7,7.2,1.7,11.4c0,1.4-0.4,2.4-1.2,3.1c-0.8,0.7-2,1-3.6,1H78.7v-8.6h26.2l-1.7,1.5
			c0-3-0.4-5.5-1.2-7.5c-0.8-2-2-3.5-3.6-4.6c-1.6-1-3.5-1.5-5.8-1.5c-2.6,0-4.7,0.6-6.5,1.9c-1.8,1.2-3.2,3-4.2,5.4
			c-1,2.3-1.5,5.2-1.5,8.5v0.9c0,5.6,1.2,9.7,3.7,12.3c2.5,2.6,6.1,4,11,4c1.7,0,3.6-0.2,5.7-0.7c2.1-0.4,4.2-1.1,6-2.1
			c1.6-0.8,3-1.1,4.3-0.8c1.2,0.3,2.2,0.9,2.9,1.8c0.7,1,1.1,2.1,1.2,3.3c0.1,1.2-0.2,2.5-0.8,3.7s-1.7,2.2-3.1,3
			c-2.4,1.4-5,2.4-7.9,3.1C100.4,111.9,97.6,112.3,94.8,112.3z"/>
		<path class="st2" d="M142.6,112.3c-3.7,0-7.1-0.8-10.1-2.3c-3-1.5-5.3-3.6-7-6.3s-2.5-5.6-2.5-8.9c0-4,1-7.1,2.9-9.4
			c1.9-2.3,5.1-4,9.4-4.9c4.4-1,10.1-1.5,17.3-1.5h5.5v8.6h-5.4c-3.5,0-6.4,0.2-8.6,0.6c-2.2,0.4-3.7,1.1-4.7,2
			c-0.9,1-1.4,2.3-1.4,4c0,2.1,0.7,3.7,2,5.1c1.4,1.3,3.3,2,5.9,2c2,0,3.8-0.5,5.3-1.5c1.6-1,2.8-2.3,3.7-4.1
			c0.9-1.7,1.3-3.7,1.3-5.9V77.1c0-3.2-0.7-5.5-2.1-6.9c-1.4-1.4-3.7-2-7.1-2c-1.9,0-3.9,0.2-6.1,0.7c-2.2,0.5-4.6,1.3-7.2,2.4
			c-1.5,0.7-2.9,0.9-4,0.5c-1.2-0.4-2.1-1.1-2.7-2.2c-0.6-1.1-0.9-2.2-0.9-3.5c0-1.3,0.3-2.5,1-3.7c0.7-1.2,1.8-2.1,3.4-2.7
			c3.3-1.4,6.3-2.3,9.2-2.9c2.9-0.5,5.5-0.8,7.9-0.8c5.3,0,9.7,0.8,13.1,2.5c3.4,1.6,6,4.2,7.7,7.6c1.7,3.4,2.6,7.8,2.6,13.1v24.4
			c0,2.7-0.6,4.8-1.9,6.3c-1.2,1.5-3,2.2-5.4,2.2c-2.4,0-4.2-0.7-5.5-2.2c-1.3-1.5-1.9-3.6-1.9-6.3v-4.1l0.7,0.7
			c-0.4,2.5-1.3,4.6-2.6,6.4c-1.4,1.8-3.1,3.2-5.1,4.2S145.3,112.3,142.6,112.3z"/>
		<path class="st2" d="M208,112.3c-5.5,0-10.4-1.2-14.5-3.5c-4.1-2.3-7.3-5.6-9.5-9.8c-2.2-4.3-3.3-9.3-3.3-15.1
			c0-4.3,0.6-8.2,1.9-11.7c1.2-3.4,3.1-6.4,5.5-8.8s5.3-4.3,8.7-5.6c3.4-1.3,7.2-1.9,11.3-1.9c2.1,0,4.4,0.3,6.9,0.8
			c2.4,0.6,4.8,1.5,7.2,2.8c1.4,0.7,2.3,1.6,2.9,2.8s0.7,2.5,0.6,3.7c-0.1,1.3-0.6,2.4-1.3,3.4c-0.7,1-1.6,1.6-2.8,2
			c-1.1,0.3-2.4,0.1-3.7-0.6c-1.3-0.8-2.7-1.4-4.1-1.8c-1.4-0.4-2.8-0.5-4-0.5c-2.1,0-3.9,0.3-5.5,1c-1.6,0.7-2.9,1.7-4,3
			c-1.1,1.3-1.9,2.9-2.5,4.8c-0.6,1.9-0.9,4.1-0.9,6.6c0,4.8,1.1,8.6,3.4,11.4c2.2,2.8,5.4,4.1,9.5,4.1c1.2,0,2.6-0.2,3.9-0.5
			c1.4-0.3,2.8-0.9,4.2-1.7c1.4-0.7,2.6-0.9,3.7-0.5c1.1,0.4,2,1,2.6,2c0.7,1,1,2.1,1.1,3.4c0.1,1.3-0.1,2.5-0.6,3.7
			s-1.4,2.1-2.8,2.8c-2.4,1.2-4.7,2.1-7.1,2.7C212.4,112,210.1,112.3,208,112.3z"/>
		<path class="st2" d="M240.7,112.1c-2.6,0-4.5-0.7-5.9-2.2c-1.3-1.5-2-3.6-2-6.3V41c0-2.8,0.7-4.9,2-6.3c1.4-1.4,3.3-2.1,5.9-2.1
			c2.5,0,4.4,0.7,5.8,2.1s2,3.5,2,6.3v26.2H247c1.6-3.6,4-6.4,7.1-8.3c3.1-1.9,6.7-2.9,10.7-2.9c4.1,0,7.4,0.8,10.1,2.5
			c2.6,1.6,4.6,4.1,5.9,7.5c1.3,3.3,2,7.6,2,12.7v25c0,2.7-0.7,4.8-2,6.3c-1.3,1.5-3.3,2.2-5.9,2.2c-2.5,0-4.4-0.7-5.8-2.2
			c-1.3-1.5-2-3.6-2-6.3V79.4c0-3.7-0.6-6.4-1.9-8.1c-1.3-1.6-3.2-2.5-5.9-2.5c-3.3,0-6,1.1-7.9,3.3c-2,2.2-3,5.1-3,8.8v22.7
			C248.5,109.3,245.9,112.1,240.7,112.1z"/>
	</g>
</g>
<g>
</g>
<g>
</g>
<g>
</g>
<g>
</g>
<g>
</g>
</svg>
